<svg xmlns="http://www.w3.org/2000/svg" width="65" height="64" viewBox="0 0 65 64" fill="none">
  <path fill-rule="evenodd" clip-rule="evenodd" d="M59.2947 48.9614C55.8139 48.8644 53.1135 49.2212 50.8502 50.1733C50.1985 50.4351 49.1527 50.4351 49.0668 51.2553C49.4151 51.5995 49.457 52.1628 49.7624 52.6398C50.2843 53.5055 51.1994 54.6719 52.0257 55.2769L54.811 57.2673C56.5085 58.3047 58.4235 58.9106 60.0771 59.949C61.0351 60.555 61.9922 61.3335 62.9502 61.9831C63.438 62.3292 63.7336 62.8925 64.3433 63.1077V62.9768C64.0389 62.589 63.9511 62.0267 63.6477 61.5924L62.3404 60.3388C61.079 58.6518 59.5113 57.18 57.8138 55.9701C56.4207 55.018 53.3749 53.7208 52.8091 52.1211L52.7233 52.0241C53.6793 51.9272 54.811 51.5907 55.7261 51.3309C57.207 50.9431 58.5552 51.0284 60.0771 50.6396L62.1678 50.0337V49.6459C61.3844 48.8673 60.8186 47.829 59.9922 47.0941C57.7728 45.1909 55.3339 43.3304 52.8091 41.7733C51.4599 40.9085 49.7185 40.3452 48.2824 39.6113C47.7586 39.3514 46.8893 39.2215 46.585 38.7891C45.7996 37.839 45.3655 36.5835 44.7997 35.4578L41.231 27.9314C40.4476 26.2444 39.9676 24.5575 39.0116 23.0004C34.5279 15.6466 29.6519 11.1916 22.1654 6.82194C20.5557 5.9135 18.6407 5.52278 16.6046 5.04771L13.3404 4.8732C12.6428 4.5707 11.9472 3.74855 11.3375 3.3588C8.85664 1.80174 2.45786 -1.57221 0.62866 2.87404C-0.546905 5.68566 2.37005 8.45365 3.36026 9.88176C4.10169 10.8765 5.05775 12.0011 5.58164 13.1258C5.87431 13.8607 5.97187 14.6402 6.27723 15.4187C6.97281 17.3219 7.62644 19.4422 8.54055 21.2165C9.02834 22.1249 9.54052 23.078 10.1502 23.8992C10.4985 24.3839 11.1083 24.5914 11.238 25.3699C10.6283 26.2357 10.5863 27.532 10.238 28.6149C8.6703 33.5033 9.28003 39.5589 11.4995 43.1578C12.197 44.2388 13.8408 46.619 16.071 45.7096C18.0299 44.9311 17.5929 42.4656 18.1587 40.3026C18.2904 39.7839 18.2026 39.4377 18.4631 39.0906V39.1876L20.2484 42.7778C21.5976 44.8971 23.9487 47.1038 25.9067 48.5755C26.9506 49.354 27.7779 50.6959 29.0832 51.1709V51.04H28.9973C28.7359 50.6522 28.3437 50.4777 27.9954 50.1752C27.212 49.3967 26.3418 48.4446 25.7321 47.5798C23.9048 45.1579 22.2951 42.4753 20.8581 39.7073C20.1606 38.3664 19.5509 36.8956 18.987 35.5548C18.7236 35.0351 18.7236 34.2556 18.2895 33.9977C17.6358 34.9479 16.6798 35.772 16.1988 36.9393C15.3715 38.7988 15.2857 41.0917 14.9813 43.471C14.8057 43.5146 14.8837 43.471 14.8057 43.5679C13.4145 43.2228 12.9345 41.7937 12.4126 40.5837C11.1073 37.5123 10.8887 32.5813 12.0204 29.0338C12.3248 28.1253 13.6321 25.2701 13.1101 24.4052C12.8467 23.5831 11.9785 23.108 11.4985 22.4584C10.9326 21.6363 10.3249 20.5989 9.93269 19.6904C8.88883 17.2666 8.3669 14.5859 7.23426 12.1631C6.71037 11.0384 5.79724 9.87013 5.05678 8.83274C4.2295 7.66446 3.31734 6.8423 2.6637 5.45879C2.44615 4.97403 2.14177 4.20423 2.49005 3.68456C2.5759 3.33844 2.7515 3.1998 3.09783 3.12223C3.66366 2.63747 5.27531 3.25215 5.84114 3.51005C7.45083 4.15963 8.80005 4.76461 10.1493 5.67209C10.759 6.10449 11.4126 6.92665 12.196 7.14383H13.1111C14.5042 7.44632 16.07 7.24078 17.3744 7.62859C19.6816 8.36543 21.7703 9.44548 23.6434 10.6147C29.3446 14.2049 34.0469 19.3094 37.2234 25.4097C37.7453 26.4044 37.9628 27.3129 38.4428 28.3512C39.3579 30.4716 40.4896 32.6336 41.4017 34.7113C42.3168 36.7444 43.187 38.8221 44.4923 40.5091C45.146 41.4175 47.7566 41.8926 48.9312 42.3686C49.8024 42.7564 51.1506 43.1054 51.936 43.5805C53.4149 44.489 54.8949 45.5273 56.287 46.5221C56.9826 47.0398 59.1601 48.1218 59.2898 48.9846L59.2947 48.9614ZM14.9062 11.371C14.3048 11.3657 13.7053 11.4383 13.1228 11.5872V11.6841H13.2087C13.5569 12.3764 14.1667 12.8524 14.6018 13.4583L15.6037 15.5351L15.6895 15.4381C16.2993 15.0057 16.6046 14.3135 16.6046 13.2761C16.3432 12.9736 16.3003 12.6701 16.0827 12.3676C15.8212 11.9352 15.2554 11.718 14.9062 11.3729V11.371Z" fill="#00678C"/>
</svg>