<svg width="30" height="65" viewBox="0 0 30 65" fill="none" xmlns="http://www.w3.org/2000/svg">
<g clip-path="url(#clip0_13_163)">
<path d="M20.7076 8.01826C18.0097 4.83133 15.6865 1.5946 15.2118 0.922357C15.1619 0.872561 15.0869 0.872561 15.0369 0.922357C14.5623 1.5946 12.239 4.83133 9.54109 8.01826C-13.6163 37.4226 13.1883 57.2663 13.1883 57.2663L13.4132 57.4156C13.613 60.4782 14.1126 64.885 14.1126 64.885H15.1119H16.1111C16.1111 64.885 16.6108 60.503 16.8106 57.4156L17.0354 57.2415C17.0604 57.2415 43.865 37.4226 20.7076 8.01826ZM15.1119 56.818C15.1119 56.818 13.9128 55.7973 13.588 55.2743V55.2247L15.0369 23.206C15.0369 23.1064 15.1868 23.1064 15.1868 23.206L16.6357 55.2247V55.2743C16.311 55.7973 15.1119 56.818 15.1119 56.818Z" fill="#00684A"/>
</g>
<defs>
<clipPath id="clip0_13_163">
<rect width="29.7674" height="64" fill="white" transform="translate(0.116272 0.88501)"/>
</clipPath>
</defs>
</svg>
