<svg width="64" height="65" viewBox="0 0 64 65" fill="none" xmlns="http://www.w3.org/2000/svg">
<path d="M0 64.9425V0.942505H64V64.9425H0Z" fill="#FFD600"/>
<path d="M41.8454 48.8483C43.0756 50.8465 44.4125 52.7612 47.2445 52.7612C49.6231 52.7612 50.8712 51.579 50.8712 49.9434C50.8712 47.9861 49.5805 47.291 46.9636 46.1514L45.5289 45.5399C41.3885 43.7834 38.6347 41.5825 38.6347 36.9336C38.6347 32.6492 41.9147 29.3887 47.04 29.3887C50.6898 29.3887 53.312 30.6527 55.2036 33.963L50.7343 36.8199C49.7511 35.0634 48.688 34.3719 47.04 34.3719C45.3583 34.3719 44.2934 35.4332 44.2934 36.8199C44.2934 38.5336 45.36 39.227 47.8223 40.2883L49.2569 40.8999C54.1369 42.9781 56.8889 45.1007 56.8889 49.8723C56.8889 55.0136 52.8285 57.8314 47.3778 57.8314C42.0463 57.8314 39.0187 55.1559 37.3334 51.8439L41.8454 48.8483ZM21.248 48.9941C22.1476 50.6047 23.5147 51.8439 25.4809 51.8439C27.3618 51.8439 28.4445 51.1007 28.4445 48.2119V29.387H34.3698V49.1221C34.3698 55.1079 30.8978 57.8314 25.8276 57.8314C21.2463 57.8314 17.9396 54.7274 16.592 51.8439L21.248 48.9941Z" fill="#000001"/>
</svg>
