<svg width="106" height="65" viewBox="0 0 106 65" fill="none" xmlns="http://www.w3.org/2000/svg">
<g clip-path="url(#clip0_13_171)">
<mask id="mask0_13_171" style="mask-type:luminance" maskUnits="userSpaceOnUse" x="0" y="0" width="106" height="64">
<path d="M0.313354 0.88501H105.041V63.7214H0.313354V0.88501Z" fill="white"/>
</mask>
<g mask="url(#mask0_13_171)">
<path fill-rule="evenodd" clip-rule="evenodd" d="M52.677 0.88501C38.7134 0.88501 29.9861 7.86683 26.4952 21.8305C31.7315 14.8486 37.8406 12.2305 44.8224 13.9759C48.806 14.9708 51.653 17.8625 54.8045 21.0605C59.9381 26.2717 65.8804 32.3032 78.8588 32.3032C92.8224 32.3032 101.55 25.3214 105.041 11.3577C99.8043 18.3396 93.6952 20.9577 86.7133 19.2123C82.7298 18.2174 79.8828 15.3257 76.7313 12.1277C71.5977 6.91652 65.6554 0.88501 52.677 0.88501ZM26.4952 32.3032C12.5315 32.3032 3.80426 39.285 0.313354 53.2486C5.54972 46.2668 11.6588 43.6486 18.6406 45.3941C22.6241 46.3909 25.4712 49.2806 28.6227 52.4787C33.7563 57.6899 39.6986 63.7214 52.677 63.7214C66.6406 63.7214 75.3679 56.7396 78.8588 42.7759C73.6224 49.7577 67.5134 52.3759 60.5315 50.6305C56.548 49.6356 53.701 46.7439 50.5495 43.5459C45.4159 38.3347 39.4736 32.3032 26.4952 32.3032Z" fill="#38BDF8"/>
</g>
</g>
<defs>
<clipPath id="clip0_13_171">
<rect width="104.727" height="64" fill="white" transform="translate(0.313354 0.88501)"/>
</clipPath>
</defs>
</svg>
