<svg width="64" height="65" viewBox="0 0 64 65" fill="none" xmlns="http://www.w3.org/2000/svg">
<path d="M56.2667 30.3516L34.5334 8.6183C33.8667 7.95164 32.9334 7.55164 32 7.55164C31.0667 7.55164 30.1334 7.95164 29.4667 8.6183L24.8 13.285L30.2667 18.7516C30.8 18.485 31.3334 18.3516 32 18.3516C34.2667 18.3516 36 20.085 36 22.3516C36 23.0183 35.8667 23.5516 35.6 24.085L40.9334 29.4183C41.4667 29.1516 42 29.0183 42.6667 29.0183C44.9334 29.0183 46.6667 30.7516 46.6667 33.0183C46.6667 35.285 44.9334 37.0183 42.6667 37.0183C40.4 37.0183 38.6667 35.285 38.6667 33.0183C38.6667 32.3516 38.8 31.8183 39.0667 31.285L33.7334 25.9516C33.6 25.9516 33.4667 26.085 33.3334 26.085V39.9516C34.9334 40.485 36 41.9516 36 43.685C36 45.9516 34.2667 47.685 32 47.685C29.7334 47.685 28 45.9516 28 43.685C28 41.9516 29.0667 40.485 30.6667 39.9516V25.9516C29.0667 25.4183 28 23.9516 28 22.2183C28 21.5516 28.1334 21.0183 28.4 20.485L22.9334 15.0183L7.73335 30.3516C7.06669 31.0183 6.66669 31.9516 6.66669 32.885C6.66669 33.8183 7.06669 34.7516 7.73335 35.4183L29.4667 57.1516C30.1334 57.8183 31.0667 58.2183 32 58.2183C32.9334 58.2183 33.8667 57.8183 34.5334 57.1516L56.2667 35.4183C56.9334 34.7516 57.3334 33.8183 57.3334 32.885C57.3334 31.9516 56.9334 31.0183 56.2667 30.3516Z" fill="#F4511E"/>
</svg>
