<svg width="70" height="65" viewBox="0 0 70 65" fill="none" xmlns="http://www.w3.org/2000/svg">
<path d="M35.1818 48.123C53.5435 48.123 68.4286 41.3007 68.4286 32.8849C68.4286 24.4692 53.5435 17.6469 35.1818 17.6469C16.8202 17.6469 1.93507 24.4692 1.93507 32.8849C1.93507 41.3007 16.8202 48.123 35.1818 48.123Z" stroke="#087EA4" stroke-width="3"/>
<path d="M22.2252 40.504C31.406 56.7002 44.6494 66.4186 51.8052 62.2107C58.961 58.0028 57.3193 41.4621 48.1385 25.2659C38.9576 9.06976 25.7142 -0.64865 18.5585 3.55923C11.4027 7.76712 13.0443 24.3079 22.2252 40.504Z" stroke="#087EA4" stroke-width="3"/>
<path d="M22.2252 25.2659C13.0443 41.462 11.4027 58.0027 18.5584 62.2106C25.7142 66.4185 38.9576 56.7001 48.1385 40.5039C57.3193 24.3078 58.961 7.76706 51.8052 3.55917C44.6494 -0.648711 31.406 9.0697 22.2252 25.2659Z" stroke="#087EA4" stroke-width="3"/>
</svg>
