<svg width="58" height="65" viewBox="0 0 58 65" fill="none" xmlns="http://www.w3.org/2000/svg">
<g clip-path="url(#clip0_13_142)">
<path d="M28.9631 64.9425C28.1051 64.9425 27.3044 64.7093 26.5608 64.3011L18.9535 59.6942C17.8095 59.0527 18.3814 58.8195 18.7247 58.7028C20.269 58.178 20.555 58.0614 22.1566 57.1284C22.3281 57.0117 22.5569 57.07 22.7285 57.1867L28.5627 60.7439C28.7915 60.8605 29.0775 60.8605 29.2491 60.7439L52.071 47.2732C52.2998 47.1565 52.4142 46.9233 52.4142 46.6317V19.7486C52.4142 19.457 52.2998 19.2238 52.071 19.1071L29.2491 5.69474C29.0203 5.57811 28.7343 5.57811 28.5627 5.69474L5.74075 19.1071C5.51196 19.2238 5.39756 19.5153 5.39756 19.7486V46.6317C5.39756 46.8649 5.51196 47.1565 5.74075 47.2732L11.9753 50.947C15.35 52.6964 17.4663 50.6555 17.4663 48.6144V22.0812C17.4663 21.7313 17.7523 21.3814 18.1527 21.3814H21.0698C21.413 21.3814 21.7561 21.673 21.7561 22.0812V48.6144C21.7561 53.2213 19.2966 55.9038 15.0068 55.9038C13.6913 55.9038 12.6617 55.9038 9.74458 54.4459L3.73883 50.947C2.25168 50.0722 1.33652 48.4394 1.33652 46.69V19.8069C1.33652 18.0575 2.25168 16.4247 3.73883 15.5499L26.5608 2.07922C27.9908 1.26282 29.9355 1.26282 31.3654 2.07922L54.1873 15.5499C55.6745 16.4247 56.5897 18.0575 56.5897 19.8069V46.69C56.5897 48.4394 55.6745 50.0722 54.1873 50.947L31.3654 64.4177C30.679 64.7093 29.8211 64.9425 28.9631 64.9425Z" fill="#5FA04E"/>
<path d="M36.0556 46.4567C26.046 46.4567 23.9869 41.7915 23.9869 37.8261C23.9869 37.4763 24.2728 37.1264 24.6732 37.1264H27.6475C27.9907 37.1264 28.2767 37.3596 28.2767 37.7095C28.7343 40.8001 30.0498 42.3164 36.1128 42.3164C40.9174 42.3164 42.9766 41.2083 42.9766 38.5842C42.9766 37.068 42.4046 35.96 34.9116 35.2019C28.6771 34.5604 24.7877 33.1609 24.7877 28.0875C24.7877 23.364 28.6771 20.5649 35.1977 20.5649C42.5189 20.5649 46.1224 23.1308 46.58 28.729C46.58 28.904 46.5228 29.0789 46.4084 29.2539C46.294 29.3705 46.1224 29.4871 45.9508 29.4871H42.9194C42.6333 29.4871 42.3474 29.2539 42.2902 28.9622C41.6038 25.7549 39.8306 24.7053 35.1405 24.7053C29.8782 24.7053 29.2491 26.5714 29.2491 27.9709C29.2491 29.662 29.9927 30.1869 37.0852 31.1199C44.1205 32.0529 47.438 33.3942 47.438 38.4093C47.438 43.5409 43.2625 46.4567 36.0556 46.4567Z" fill="#5FA04E"/>
</g>
<defs>
<clipPath id="clip0_13_142">
<rect width="56.32" height="64" fill="white" transform="translate(0.703644 0.942505)"/>
</clipPath>
</defs>
</svg>
