<svg width="44" height="65" viewBox="0 0 44 65" fill="none" xmlns="http://www.w3.org/2000/svg">
<g clip-path="url(#clip0_13_179)">
<path d="M21.6973 32.8851C21.6973 30.0561 22.8211 27.343 24.8215 25.3426C26.8218 23.3422 29.535 22.2184 32.3639 22.2184C35.1929 22.2184 37.906 23.3422 39.9064 25.3426C41.9068 27.343 43.0306 30.0561 43.0306 32.8851C43.0306 35.714 41.9068 38.4271 39.9064 40.4275C37.906 42.4279 35.1929 43.5517 32.3639 43.5517C29.535 43.5517 26.8218 42.4279 24.8215 40.4275C22.8211 38.4271 21.6973 35.714 21.6973 32.8851Z" fill="#1ABCFE"/>
<path d="M0.36393 54.2183C0.36393 51.3893 1.48774 48.6762 3.48812 46.6758C5.48851 44.6754 8.20162 43.5516 11.0306 43.5516H21.6973V54.2183C21.6973 57.0473 20.5735 59.7604 18.5731 61.7608C16.5727 63.7612 13.8596 64.885 11.0306 64.885C8.20162 64.885 5.48851 63.7612 3.48812 61.7608C1.48774 59.7604 0.36393 57.0473 0.36393 54.2183Z" fill="#0ACF83"/>
<path d="M21.6973 0.88501V22.2183H32.3639C35.1929 22.2183 37.906 21.0945 39.9064 19.0941C41.9068 17.0938 43.0306 14.3807 43.0306 11.5517C43.0306 8.7227 41.9068 6.00959 39.9064 4.0092C37.906 2.00882 35.1929 0.88501 32.3639 0.88501L21.6973 0.88501Z" fill="#FF7262"/>
<path d="M0.36393 11.5517C0.36393 14.3807 1.48774 17.0938 3.48812 19.0941C5.48851 21.0945 8.20162 22.2183 11.0306 22.2183H21.6973V0.88501H11.0306C8.20162 0.88501 5.48851 2.00882 3.48812 4.0092C1.48774 6.00959 0.36393 8.7227 0.36393 11.5517Z" fill="#F24E1E"/>
<path d="M0.36393 32.8851C0.36393 35.714 1.48774 38.4271 3.48812 40.4275C5.48851 42.4279 8.20162 43.5517 11.0306 43.5517H21.6973V22.2184H11.0306C8.20162 22.2184 5.48851 23.3422 3.48812 25.3426C1.48774 27.343 0.36393 30.0561 0.36393 32.8851Z" fill="#A259FF"/>
</g>
<defs>
<clipPath id="clip0_13_179">
<rect width="42.6667" height="64" fill="white" transform="translate(0.36393 0.88501)"/>
</clipPath>
</defs>
</svg>
