<svg width="65" height="66" viewBox="0 0 65 66" fill="none" xmlns="http://www.w3.org/2000/svg">
<path d="M64.6003 14.9049C64.624 14.9927 64.6361 15.0833 64.6364 15.1743V29.3163C64.6364 29.4978 64.5885 29.6761 64.4975 29.8332C64.4065 29.9902 64.2757 30.1205 64.1182 30.2108L52.2485 37.0447V50.5899C52.2485 50.9585 52.0526 51.2988 51.733 51.4844L26.9561 65.7476C26.8994 65.7798 26.8375 65.8005 26.7756 65.8224C26.7524 65.8301 26.7305 65.8443 26.706 65.8507C26.5328 65.8963 26.3508 65.8963 26.1776 65.8507C26.1492 65.843 26.1234 65.8275 26.0964 65.8172C26.0397 65.7966 25.9804 65.7785 25.9262 65.7476L1.1545 51.4844C0.997131 51.394 0.866374 51.2637 0.775407 51.1067C0.68444 50.9496 0.636477 50.7714 0.636353 50.5899V8.16385C0.636353 8.07105 0.649242 7.98082 0.672442 7.89318C0.680176 7.86353 0.698221 7.83646 0.708532 7.80682C0.727866 7.75268 0.745911 7.69726 0.774267 7.64699C0.793601 7.61348 0.821957 7.58641 0.845157 7.55548C0.874803 7.51423 0.90187 7.4717 0.936671 7.43561C0.966316 7.40596 1.00498 7.38405 1.0385 7.35827C1.07587 7.32734 1.10939 7.29383 1.15192 7.26934L13.5397 0.137748C13.6966 0.047499 13.8743 0 14.0553 0C14.2362 0 14.414 0.047499 14.5709 0.137748L26.9574 7.26934H26.96C27.0012 7.29512 27.036 7.32734 27.0734 7.35699C27.1069 7.38276 27.1443 7.40596 27.1739 7.43432C27.21 7.4717 27.2358 7.51423 27.2667 7.55548C27.2886 7.58641 27.3183 7.61348 27.3363 7.64699C27.366 7.69855 27.3827 7.75268 27.4033 7.80682C27.4137 7.83646 27.4317 7.86353 27.4394 7.89446C27.4632 7.9823 27.4753 8.07286 27.4755 8.16385V34.6627L37.7972 28.7195V15.173C37.7972 15.0828 37.8101 14.9913 37.8333 14.9049C37.8423 14.874 37.8591 14.8469 37.8694 14.8173C37.89 14.7631 37.908 14.7077 37.9364 14.6574C37.9557 14.6239 37.9841 14.5968 38.006 14.5659C38.0369 14.5247 38.0627 14.4821 38.0988 14.446C38.1284 14.4164 38.1658 14.3945 38.1993 14.3687C38.238 14.3378 38.2715 14.3043 38.3128 14.2798L50.7018 7.14818C50.8586 7.05781 51.0364 7.01023 51.2174 7.01023C51.3984 7.01023 51.5762 7.05781 51.733 7.14818L64.1195 14.2798C64.1633 14.3056 64.1968 14.3378 64.2355 14.3674C64.2677 14.3932 64.3051 14.4164 64.3347 14.4448C64.3708 14.4821 64.3966 14.5247 64.4275 14.5659C64.4507 14.5968 64.4791 14.6239 64.4972 14.6574C64.5268 14.7077 64.5435 14.7631 64.5642 14.8173C64.5758 14.8469 64.5925 14.874 64.6003 14.9049ZM62.5715 28.7195V16.9594L58.2369 19.4548L52.2485 22.9026V34.6627L62.5728 28.7195H62.5715ZM50.185 49.9931V38.2253L44.2946 41.5894L27.4742 51.1893V63.0679L50.185 49.9931ZM2.7012 9.949V49.9931L25.4094 63.0667V51.1906L13.5462 44.4766L13.5423 44.474L13.5371 44.4714C13.4972 44.4482 13.4637 44.4147 13.4263 44.3863C13.3941 44.3606 13.3567 44.34 13.3283 44.3116L13.3258 44.3077C13.2923 44.2755 13.2691 44.2355 13.2407 44.1995C13.2149 44.1647 13.184 44.135 13.1634 44.0989L13.1621 44.0951C13.1389 44.0564 13.1247 44.01 13.1079 43.9662C13.0912 43.9275 13.0693 43.8914 13.059 43.8502C13.0461 43.8012 13.0435 43.7483 13.0383 43.6981C13.0332 43.6594 13.0229 43.6207 13.0229 43.5821V15.8922L7.03584 12.4431L2.7012 9.949ZM14.0566 2.22322L3.7362 8.16385L14.054 14.1045L24.3731 8.16256L14.054 2.22322H14.0566ZM19.4236 39.2977L25.4107 35.8511V9.949L21.076 12.4444L15.0877 15.8922V41.7943L19.4236 39.2977ZM51.2174 9.23365L40.8983 15.1743L51.2174 21.1149L61.5352 15.173L51.2174 9.23365ZM50.185 22.9026L44.1967 19.4548L39.862 16.9594V28.7195L45.8491 32.1661L50.185 34.6627V22.9026ZM26.4405 49.4041L41.5763 40.7632L49.1423 36.4453L38.8309 30.5086L26.9587 37.3437L16.1382 43.573L26.4405 49.4041Z" fill="#FF2D20"/>
</svg>
